<svg id="Camada_1" data-name="Camada 1" xmlns="http://www.w3.org/2000/svg" viewBox="0 0 82.18016 92.55679"><path d="M7.81821,47.18021A1.18226,1.18226,0,0,1,8.997,46.00142h5.10093a1.18226,1.18226,0,0,1,1.17879,1.17879V78.82487l4.31363,2.49053V49.53234a1.18226,1.18226,0,0,1,1.17879-1.17879H25.87a1.18227,1.18227,0,0,1,1.1788,1.17879V85.62149L31.36242,88.112V4.45108L27.04879,6.94153V43.51979A1.18229,1.18229,0,0,1,25.87,44.69866H20.76914a1.18228,1.18228,0,0,1-1.17879-1.17887V11.24769l-4.31363,2.49046V41.16766a1.18228,1.18228,0,0,1-1.17879,1.17887H8.997a1.18228,1.18228,0,0,1-1.17879-1.17887V18.04438L3.73658,20.40089c-.08133.04695-.1529.10552-.232.15526V43.51979a1.18228,1.18228,0,0,1-1.17879,1.17887H0v3.65489H2.32579a1.18226,1.18226,0,0,1,1.17879,1.17879v22.4746c.0791.04974.15067.10831.232.15526l4.08163,2.35651Z" transform="translate(0 -0.00157)" style="fill:#e8318a"/><path d="M43.13455,91.69771V.2836a7.45968,7.45968,0,0,0-4.31362.0758V92.20362a7.45522,7.45522,0,0,0,4.3282.06563C43.14913,92.10413,43.13455,91.89238,43.13455,91.69771Z" transform="translate(0 -0.00157)" style="fill:#e8318a"/><path d="M78.4509,32.99134a1.18229,1.18229,0,0,1,1.17879-1.17887h2.55047V28.15758H79.62969a1.18227,1.18227,0,0,1-1.17879-1.17879v-6.573l-.00732-.00488L74.13727,17.9146V57.68577a1.18226,1.18226,0,0,1-1.17879,1.17879H67.85756a1.18227,1.18227,0,0,1-1.1788-1.17879V13.60844L62.36513,11.118V55.33364a1.18226,1.18226,0,0,1-1.17879,1.17879H56.08549a1.18227,1.18227,0,0,1-1.1788-1.17879V6.81182L50.59307,4.3213V88.24172l4.31362-2.49052V61.34611a1.18228,1.18228,0,0,1,1.1788-1.17879h5.10085a1.18227,1.18227,0,0,1,1.17879,1.17879v20.099l4.31363-2.49045V63.69825a1.18228,1.18228,0,0,1,1.1788-1.1788h5.10092a1.18227,1.18227,0,0,1,1.17879,1.1788V74.64842l4.30631-2.48622.00732-.00488Z" transform="translate(0 -0.00157)" style="fill:#e8318a"/></svg>