<?xml version="1.0" encoding="utf-8"?>
<!-- Generator: Adobe Illustrator 26.0.1, SVG Export Plug-In . SVG Version: 6.00 Build 0)  -->
<svg version="1.1" id="Camada_1" xmlns="http://www.w3.org/2000/svg" xmlns:xlink="http://www.w3.org/1999/xlink" x="0px" y="0px"
	 viewBox="0 0 82.2 92.6" style="enable-background:new 0 0 82.2 92.6;" xml:space="preserve">
<style type="text/css">
	.st0{fill:#FFFFFF;}
</style>
<g>
	<path class="st0" d="M7.8,47.2C7.8,46.5,8.3,46,9,46h5.1c0.6,0,1.2,0.5,1.2,1.2v31.6l4.3,2.5V49.5c0-0.6,0.5-1.2,1.2-1.2h5.1
		c0.6,0,1.2,0.5,1.2,1.2v36.1l4.3,2.5V4.5L27,6.9v36.6c0,0.6-0.5,1.2-1.2,1.2h-5.1c-0.6,0-1.2-0.5-1.2-1.2V11.2l-4.3,2.5v27.4
		c0,0.6-0.5,1.2-1.2,1.2H9c-0.6,0-1.2-0.5-1.2-1.2V18l-4.1,2.4c-0.1,0-0.2,0.1-0.2,0.2v23c0,0.6-0.5,1.2-1.2,1.2H0v3.7h2.3
		c0.6,0,1.2,0.5,1.2,1.2V72c0.1,0,0.2,0.1,0.2,0.2l4.1,2.4V47.2z"/>
	<path class="st0" d="M43.1,91.7V0.3c-1.4-0.4-2.9-0.4-4.3,0.1v91.8c1.4,0.4,2.9,0.5,4.3,0.1C43.1,92.1,43.1,91.9,43.1,91.7z"/>
	<path class="st0" d="M78.5,33c0-0.6,0.5-1.2,1.2-1.2h2.6v-3.7h-2.6c-0.6,0-1.2-0.5-1.2-1.2v-6.6c0,0,0,0,0,0l-4.3-2.5v39.8
		c0,0.6-0.5,1.2-1.2,1.2h-5.1c-0.6,0-1.2-0.5-1.2-1.2V13.6l-4.3-2.5v44.2c0,0.6-0.5,1.2-1.2,1.2h-5.1c-0.6,0-1.2-0.5-1.2-1.2V6.8
		l-4.3-2.5v83.9l4.3-2.5V61.3c0-0.6,0.5-1.2,1.2-1.2h5.1c0.6,0,1.2,0.5,1.2,1.2v20.1l4.3-2.5V63.7c0-0.6,0.5-1.2,1.2-1.2H73
		c0.6,0,1.2,0.5,1.2,1.2v11l4.3-2.5c0,0,0,0,0,0V33z"/>
</g>
</svg>
